# xmcd
#
# Track frame offsets: 
#        150
#        67950
#        113070
#        172221
#        217228
#        270695
#
# Disc length: 4345 seconds
#
# Revision: 1
# Processed by: cddbd v1.5.2PL0 Copyright (c) Steve Scherf et al.
# Submitted via: ExactAudioCopyFreeDBPlugin 1.0
#
DISCID=5c10f706
DTITLE=The European Leaders - Live At Birdland Neuburg
DYEAR=2012
DGENRE=Jazz
TTITLE0=Ends And Means
TTITLE1=Sail Away
TTITLE2=Round Midnight
TTITLE3=A Shade Of Jade
TTITLE4=Darn That Dream
TTITLE5=Freight Train
EXTD=YEAR: 2012
EXTT0=
EXTT1=
EXTT2=
EXTT3=
EXTT4=
EXTT5=
PLAYORDER=
